<?xml version="1.0" encoding="utf-8"?>
<!-- Generator: Adobe Illustrator 23.1.1, SVG Export Plug-In . SVG Version: 6.00 Build 0)  -->
<svg version="1.1" id="Layer_1" xmlns="http://www.w3.org/2000/svg" xmlns:xlink="http://www.w3.org/1999/xlink" x="0px" y="0px"
	 viewBox="0 0 280 420" style="enable-background:new 0 0 280 420;" xml:space="preserve">
<style type="text/css">
	.st0{fill-rule:evenodd;clip-rule:evenodd;fill:#FFFFFF;}
	.st1{fill-rule:evenodd;clip-rule:evenodd;fill:#FEFEFE;}
</style>
<title>Group</title>
<desc>Created with Sketch.</desc>
<g>
	<g transform="translate(-1173.000000, -130.000000)">
		
			<g id="Group" transform="translate(1289.666667, 305.000000) rotate(180.000000) translate(-1289.666667, -305.000000) translate(1173.000000, 130.000000)">
			<g id="Group-2">
				<polygon id="Fill-2" class="st0" points="93.3,210 93.3,350 233.3,210 				"/>
				<g id="Group-8">
					<polygon id="Fill-1" class="st1" points="193.3,210 213.3,210 233.3,190 233.3,170 					"/>
					<polygon class="st1" points="153.3,210 173.3,210 233.3,150 233.3,130 					"/>
					<polygon id="Fill-3" class="st1" points="113.3,210 133.3,210 233.3,110 233.3,90 					"/>
					<polygon id="Fill-4" class="st1" points="73.3,210 93.3,210 233.3,70 233.3,50 					"/>
					<polygon id="Fill-5" class="st1" points="33.3,210 53.3,210 233.3,30 233.3,10 					"/>
					<polygon id="Fill-6" class="st1" points="-6.7,210 13.3,210 233.3,-10 233.3,-30 					"/>
					<polygon id="Fill-7" class="st1" points="233.3,-70 -46.7,210 -26.7,210 233.3,-50 233.3,-70 					"/>
				</g>
			</g>
		</g>
	</g>
</g>
</svg>
